<svg xmlns="http://www.w3.org/2000/svg" viewBox="0 0 512 512" style="background-color: black;">
  <path fill="red" d="M448 256c0-106-86-192-192-192S64 150 64 256c0 100 89.2 147.1 91.6 148.5 7.6 4.3 17 6 26.6 2.3 22.8-5.3 49.3-10.8 73.8-10.8 24.1 0 51 5.5 73.6 10.8 9.6 3.7 19.1 2 26.6-2.3C358.8 403.1 448 356 448 256zM148.7 186.7c22.7-18.2 54.4-15.3 75.3 4.1 20-30.7 58.6-35.9 84.7-13.8 27.2 23 27.6 64.9 2.5 89.5-22.1 21.7-65.4 56.4-87.2 84.1-23.7-29.3-64.8-62-87.2-84.1-25.1-24.6-24.7-66.5 2.5-89.5z"/>
</svg>
